<mxfile host="app.diagrams.net" modified="2024-02-05T19:48:27.295Z" agent="Mozilla/5.0 (Windows NT 10.0; Win64; x64) AppleWebKit/537.36 (KHTML, like Gecko) Chrome/121.0.0.0 Safari/537.36" etag="nnYPxaGUqt50FVg3LU5V" version="22.1.21" type="device">
  <diagram name="Page-1" id="-PJsCoitziN_jC_ugaVW">
    <mxGraphModel dx="600" dy="318" grid="1" gridSize="10" guides="1" tooltips="1" connect="1" arrows="1" fold="1" page="1" pageScale="1" pageWidth="850" pageHeight="1100" math="0" shadow="0">
      <root>
        <mxCell id="0" />
        <mxCell id="1" parent="0" />
        <mxCell id="O71nC2DpzpNfEtEYsHZS-1" value="" style="ellipse;whiteSpace=wrap;html=1;aspect=fixed;" vertex="1" parent="1">
          <mxGeometry x="380" y="250" width="90" height="90" as="geometry" />
        </mxCell>
        <mxCell id="O71nC2DpzpNfEtEYsHZS-2" value="" style="endArrow=none;html=1;rounded=0;exitX=0.255;exitY=0.061;exitDx=0;exitDy=0;entryX=0.26;entryY=0.955;entryDx=0;entryDy=0;exitPerimeter=0;entryPerimeter=0;" edge="1" parent="1" source="O71nC2DpzpNfEtEYsHZS-1" target="O71nC2DpzpNfEtEYsHZS-1">
          <mxGeometry width="50" height="50" relative="1" as="geometry">
            <mxPoint x="400" y="320" as="sourcePoint" />
            <mxPoint x="450" y="270" as="targetPoint" />
          </mxGeometry>
        </mxCell>
        <mxCell id="O71nC2DpzpNfEtEYsHZS-4" value="" style="endArrow=none;html=1;rounded=0;exitX=0.733;exitY=0.955;exitDx=0;exitDy=0;entryX=0.723;entryY=0.066;entryDx=0;entryDy=0;entryPerimeter=0;exitPerimeter=0;" edge="1" parent="1" source="O71nC2DpzpNfEtEYsHZS-1" target="O71nC2DpzpNfEtEYsHZS-1">
          <mxGeometry width="50" height="50" relative="1" as="geometry">
            <mxPoint x="410" y="300" as="sourcePoint" />
            <mxPoint x="457" y="263" as="targetPoint" />
          </mxGeometry>
        </mxCell>
        <mxCell id="O71nC2DpzpNfEtEYsHZS-5" value="" style="endArrow=none;html=1;rounded=0;exitX=0.032;exitY=0.315;exitDx=0;exitDy=0;entryX=0.961;entryY=0.325;entryDx=0;entryDy=0;entryPerimeter=0;exitPerimeter=0;" edge="1" parent="1" source="O71nC2DpzpNfEtEYsHZS-1" target="O71nC2DpzpNfEtEYsHZS-1">
          <mxGeometry width="50" height="50" relative="1" as="geometry">
            <mxPoint x="410" y="300" as="sourcePoint" />
            <mxPoint x="460" y="250" as="targetPoint" />
          </mxGeometry>
        </mxCell>
        <mxCell id="O71nC2DpzpNfEtEYsHZS-6" value="" style="endArrow=none;html=1;rounded=0;exitX=0.048;exitY=0.263;exitDx=0;exitDy=0;exitPerimeter=0;entryX=0.042;entryY=0.264;entryDx=0;entryDy=0;entryPerimeter=0;" edge="1" parent="1" source="O71nC2DpzpNfEtEYsHZS-1" target="O71nC2DpzpNfEtEYsHZS-1">
          <mxGeometry width="50" height="50" relative="1" as="geometry">
            <mxPoint x="410" y="300" as="sourcePoint" />
            <mxPoint x="460" y="274" as="targetPoint" />
          </mxGeometry>
        </mxCell>
        <mxCell id="O71nC2DpzpNfEtEYsHZS-7" value="" style="endArrow=none;html=1;rounded=0;exitX=0.057;exitY=0.737;exitDx=0;exitDy=0;exitPerimeter=0;entryX=0.951;entryY=0.742;entryDx=0;entryDy=0;entryPerimeter=0;" edge="1" parent="1" source="O71nC2DpzpNfEtEYsHZS-1" target="O71nC2DpzpNfEtEYsHZS-1">
          <mxGeometry width="50" height="50" relative="1" as="geometry">
            <mxPoint x="440" y="300" as="sourcePoint" />
            <mxPoint x="490" y="250" as="targetPoint" />
          </mxGeometry>
        </mxCell>
      </root>
    </mxGraphModel>
  </diagram>
</mxfile>
